<mxfile host="65bd71144e" modified="2020-10-28T22:16:46.544Z" agent="5.0 (Macintosh; Intel Mac OS X 10_15_6) AppleWebKit/537.36 (KHTML, like Gecko) Code/1.50.1 Chrome/83.0.4103.122 Electron/9.2.1 Safari/537.36" version="13.6.5" etag="JOnjhbuqeIjfKe3OB81g">
    <diagram id="Kry13mM86Sc_4rmwd-vw" name="Page-1">
        <mxGraphModel dx="1699" dy="815" grid="1" gridSize="10" guides="1" tooltips="1" connect="1" arrows="1" fold="1" page="1" pageScale="1" pageWidth="827" pageHeight="1169" math="0" shadow="0">
            <root>
                <mxCell id="0"/>
                <mxCell id="1" parent="0"/>
                <mxCell id="2" value="" style="aspect=fixed;html=1;points=[];align=center;image;fontSize=12;image=img/lib/mscae/SAP_HANA_on_Azure.svg;" vertex="1" parent="1">
                    <mxGeometry x="450" y="97.13" width="120" height="60" as="geometry"/>
                </mxCell>
                <mxCell id="3" value="" style="verticalLabelPosition=bottom;html=1;verticalAlign=top;align=center;strokeColor=none;fillColor=#00BEF2;shape=mxgraph.azure.git_repository;" vertex="1" parent="1">
                    <mxGeometry x="40" y="84.25" width="85.75" height="85.75" as="geometry"/>
                </mxCell>
                <mxCell id="4" value="Amazon S3" style="outlineConnect=0;fontColor=#232F3E;gradientColor=none;strokeColor=#ffffff;fillColor=#232F3E;dashed=0;verticalLabelPosition=middle;verticalAlign=bottom;align=center;html=1;whiteSpace=wrap;fontSize=10;fontStyle=1;spacing=3;shape=mxgraph.aws4.productIcon;prIcon=mxgraph.aws4.s3;" vertex="1" parent="1">
                    <mxGeometry x="700" y="276.25" width="80" height="100" as="geometry"/>
                </mxCell>
                <mxCell id="8" style="edgeStyle=orthogonalEdgeStyle;rounded=0;orthogonalLoop=1;jettySize=auto;html=1;entryX=0.175;entryY=0.5;entryDx=0;entryDy=0;entryPerimeter=0;fontColor=#999999;strokeColor=#999999;" edge="1" parent="1" source="5" target="6">
                    <mxGeometry relative="1" as="geometry"/>
                </mxCell>
                <mxCell id="5" value="" style="verticalLabelPosition=bottom;html=1;verticalAlign=top;align=center;strokeColor=none;fillColor=#00BEF2;shape=mxgraph.azure.scheduler;pointerEvents=1;" vertex="1" parent="1">
                    <mxGeometry x="29.999999999999996" y="282.5" width="70" height="87.5" as="geometry"/>
                </mxCell>
                <mxCell id="9" style="edgeStyle=orthogonalEdgeStyle;rounded=0;orthogonalLoop=1;jettySize=auto;html=1;exitX=0.34;exitY=0.17;exitDx=0;exitDy=0;exitPerimeter=0;entryX=0.76;entryY=0.76;entryDx=0;entryDy=0;entryPerimeter=0;fontColor=#999999;strokeColor=#999999;" edge="1" parent="1" source="6" target="3">
                    <mxGeometry relative="1" as="geometry">
                        <Array as="points">
                            <mxPoint x="210" y="260"/>
                            <mxPoint x="210" y="149"/>
                        </Array>
                    </mxGeometry>
                </mxCell>
                <mxCell id="10" style="edgeStyle=orthogonalEdgeStyle;rounded=0;orthogonalLoop=1;jettySize=auto;html=1;exitX=0.66;exitY=0.17;exitDx=0;exitDy=0;exitPerimeter=0;fontColor=#999999;strokeColor=#999999;" edge="1" parent="1" source="6" target="2">
                    <mxGeometry relative="1" as="geometry">
                        <Array as="points">
                            <mxPoint x="349" y="180"/>
                            <mxPoint x="510" y="180"/>
                        </Array>
                    </mxGeometry>
                </mxCell>
                <mxCell id="11" style="edgeStyle=orthogonalEdgeStyle;rounded=0;orthogonalLoop=1;jettySize=auto;html=1;exitX=0.75;exitY=0.67;exitDx=0;exitDy=0;exitPerimeter=0;fontColor=#999999;strokeColor=#999999;" edge="1" parent="1" source="6" target="4">
                    <mxGeometry relative="1" as="geometry">
                        <mxPoint x="610" y="290" as="targetPoint"/>
                    </mxGeometry>
                </mxCell>
                <mxCell id="6" value="" style="html=1;fillColor=#5184F3;strokeColor=none;verticalAlign=top;labelPosition=center;verticalLabelPosition=bottom;align=center;spacingTop=-6;fontSize=11;fontStyle=1;fontColor=#999999;shape=mxgraph.gcp2.hexIcon;prIcon=container_builder" vertex="1" parent="1">
                    <mxGeometry x="298.75" y="263.75" width="135.38" height="120" as="geometry"/>
                </mxCell>
                <mxCell id="46" style="edgeStyle=orthogonalEdgeStyle;rounded=0;orthogonalLoop=1;jettySize=auto;html=1;entryX=0.25;entryY=0;entryDx=0;entryDy=0;fontColor=#999999;strokeColor=#999999;" edge="1" parent="1" source="7" target="34">
                    <mxGeometry relative="1" as="geometry">
                        <Array as="points">
                            <mxPoint x="268" y="690"/>
                            <mxPoint x="210" y="690"/>
                            <mxPoint x="210" y="600"/>
                            <mxPoint x="303" y="600"/>
                        </Array>
                    </mxGeometry>
                </mxCell>
                <mxCell id="7" value="" style="image;image=img/lib/atlassian/Confluence_Logo.svg;" vertex="1" parent="1">
                    <mxGeometry x="219.99999999999997" y="720" width="95.33" height="86.25" as="geometry"/>
                </mxCell>
                <mxCell id="13" style="edgeStyle=orthogonalEdgeStyle;rounded=0;orthogonalLoop=1;jettySize=auto;html=1;fontColor=#999999;strokeColor=#999999;" edge="1" parent="1" source="12" target="18">
                    <mxGeometry relative="1" as="geometry"/>
                </mxCell>
                <mxCell id="12" value="" style="aspect=fixed;pointerEvents=1;shadow=0;dashed=0;html=1;strokeColor=none;labelPosition=center;verticalLabelPosition=bottom;verticalAlign=top;align=center;shape=mxgraph.mscae.enterprise.user_permissions;fillColor=#0078D7;" vertex="1" parent="1">
                    <mxGeometry x="41.14999999999996" y="559.07" width="84.6" height="90" as="geometry"/>
                </mxCell>
                <mxCell id="20" style="edgeStyle=orthogonalEdgeStyle;rounded=0;orthogonalLoop=1;jettySize=auto;html=1;fontColor=#999999;strokeColor=#999999;" edge="1" parent="1" source="18" target="4">
                    <mxGeometry relative="1" as="geometry">
                        <mxPoint x="560" y="510" as="targetPoint"/>
                    </mxGeometry>
                </mxCell>
                <mxCell id="25" style="edgeStyle=orthogonalEdgeStyle;rounded=0;orthogonalLoop=1;jettySize=auto;html=1;entryX=0.05;entryY=0.532;entryDx=0;entryDy=0;entryPerimeter=0;fontColor=#999999;strokeColor=#999999;" edge="1" parent="1" source="34" target="24">
                    <mxGeometry relative="1" as="geometry"/>
                </mxCell>
                <mxCell id="18" value="" style="pointerEvents=1;shadow=0;dashed=0;html=1;strokeColor=none;aspect=fixed;labelPosition=center;verticalLabelPosition=bottom;verticalAlign=top;align=center;outlineConnect=0;shape=mxgraph.vvd.web_browser;fillColor=#3399FF;" vertex="1" parent="1">
                    <mxGeometry x="268" y="460" width="145.69" height="103.44" as="geometry"/>
                </mxCell>
                <mxCell id="27" style="edgeStyle=orthogonalEdgeStyle;rounded=0;orthogonalLoop=1;jettySize=auto;html=1;entryX=1.02;entryY=0.553;entryDx=0;entryDy=0;entryPerimeter=0;fontColor=#999999;strokeColor=#999999;" edge="1" parent="1" source="22" target="24">
                    <mxGeometry relative="1" as="geometry"/>
                </mxCell>
                <mxCell id="22" value="" style="dashed=0;aspect=fixed;verticalLabelPosition=bottom;verticalAlign=top;align=center;shape=mxgraph.gmdl.edit;strokeColor=none;shadow=0;fillColor=#3399FF;" vertex="1" parent="1">
                    <mxGeometry x="501.87" y="530" width="48.13" height="48.13" as="geometry"/>
                </mxCell>
                <mxCell id="23" style="edgeStyle=orthogonalEdgeStyle;rounded=0;orthogonalLoop=1;jettySize=auto;html=1;fontColor=#999999;strokeColor=#999999;" edge="1" parent="1" source="18" target="22">
                    <mxGeometry relative="1" as="geometry">
                        <mxPoint x="410" y="471.70000000000005" as="sourcePoint"/>
                        <mxPoint x="570" y="555.0999999999999" as="targetPoint"/>
                    </mxGeometry>
                </mxCell>
                <mxCell id="26" style="edgeStyle=orthogonalEdgeStyle;rounded=0;orthogonalLoop=1;jettySize=auto;html=1;fontColor=#999999;strokeColor=#999999;" edge="1" parent="1" source="24" target="7">
                    <mxGeometry relative="1" as="geometry">
                        <Array as="points">
                            <mxPoint x="460" y="763"/>
                        </Array>
                    </mxGeometry>
                </mxCell>
                <mxCell id="24" value="" style="html=1;aspect=fixed;strokeColor=none;shadow=0;align=center;verticalAlign=top;fillColor=#3B8DF1;shape=mxgraph.gcp2.key" vertex="1" parent="1">
                    <mxGeometry x="410" y="650" width="100" height="47" as="geometry"/>
                </mxCell>
                <mxCell id="28" value="&lt;font style=&quot;font-size: 18px&quot;&gt;&lt;b&gt;gitlab.cd.auspost&lt;/b&gt;&lt;/font&gt;" style="text;html=1;strokeColor=none;fillColor=none;align=center;verticalAlign=middle;whiteSpace=wrap;rounded=0;fontColor=#999999;" vertex="1" parent="1">
                    <mxGeometry x="10" y="170" width="152.88" height="20" as="geometry"/>
                </mxCell>
                <mxCell id="30" value="&lt;font style=&quot;font-size: 18px&quot;&gt;&lt;b&gt;gitlab.cd.auspost/&lt;br&gt;CI&lt;/b&gt;&lt;/font&gt;" style="text;html=1;strokeColor=none;fillColor=none;align=center;verticalAlign=middle;whiteSpace=wrap;rounded=0;fontColor=#999999;" vertex="1" parent="1">
                    <mxGeometry x="280" y="370" width="198.75" height="40" as="geometry"/>
                </mxCell>
                <mxCell id="31" value="&lt;font&gt;&lt;b style=&quot;font-size: 18px&quot;&gt;gitlab.cd.auspost/&lt;br&gt;&lt;/b&gt;&lt;span style=&quot;font-size: 18px&quot;&gt;&lt;b&gt;scheduler&lt;/b&gt;&lt;/span&gt;&lt;br&gt;&lt;br&gt;&lt;/font&gt;" style="text;html=1;strokeColor=none;fillColor=none;align=center;verticalAlign=middle;whiteSpace=wrap;rounded=0;fontColor=#999999;" vertex="1" parent="1">
                    <mxGeometry x="1.4399999999999995" y="370" width="170" height="56.25" as="geometry"/>
                </mxCell>
                <mxCell id="33" value="&lt;font style=&quot;font-size: 18px&quot;&gt;&lt;b&gt;User&lt;/b&gt;&lt;/font&gt;" style="text;html=1;strokeColor=none;fillColor=none;align=center;verticalAlign=middle;whiteSpace=wrap;rounded=0;fontColor=#999999;" vertex="1" parent="1">
                    <mxGeometry x="10" y="530" width="152.88" height="20" as="geometry"/>
                </mxCell>
                <mxCell id="34" value="&lt;span style=&quot;font-size: 18px&quot;&gt;&lt;b&gt;App&lt;/b&gt;&lt;/span&gt;" style="text;html=1;strokeColor=none;fillColor=none;align=center;verticalAlign=middle;whiteSpace=wrap;rounded=0;fontColor=#999999;" vertex="1" parent="1">
                    <mxGeometry x="264.40000000000003" y="565" width="152.88" height="20" as="geometry"/>
                </mxCell>
                <mxCell id="36" value="&lt;font style=&quot;font-size: 18px&quot;&gt;&lt;b&gt;Confluence&lt;/b&gt;&lt;/font&gt;" style="text;html=1;strokeColor=none;fillColor=none;align=center;verticalAlign=middle;whiteSpace=wrap;rounded=0;fontColor=#999999;" vertex="1" parent="1">
                    <mxGeometry x="191.22" y="820" width="152.88" height="20" as="geometry"/>
                </mxCell>
                <mxCell id="37" value="&lt;font style=&quot;font-size: 18px&quot;&gt;&lt;b&gt;Auth&lt;/b&gt;&lt;/font&gt;" style="text;html=1;strokeColor=none;fillColor=none;align=center;verticalAlign=middle;whiteSpace=wrap;rounded=0;fontColor=#999999;" vertex="1" parent="1">
                    <mxGeometry x="383.56" y="700" width="152.88" height="20" as="geometry"/>
                </mxCell>
                <mxCell id="38" value="&lt;span style=&quot;font-size: 18px&quot;&gt;&lt;b&gt;Page Edit (note)&lt;/b&gt;&lt;/span&gt;" style="text;html=1;strokeColor=none;fillColor=none;align=center;verticalAlign=middle;whiteSpace=wrap;rounded=0;fontColor=#999999;" vertex="1" parent="1">
                    <mxGeometry x="450" y="575" width="152.88" height="20" as="geometry"/>
                </mxCell>
                <mxCell id="39" value="&lt;font style=&quot;font-size: 18px&quot;&gt;&lt;font color=&quot;#ccffcc&quot;&gt;Fetches Milestone and EventCode&lt;br&gt;Descriptions&lt;br&gt;using CI_TOKEN&lt;/font&gt;&lt;br&gt;&lt;/font&gt;" style="text;html=1;strokeColor=none;fillColor=none;align=center;verticalAlign=middle;whiteSpace=wrap;rounded=0;" vertex="1" parent="1">
                    <mxGeometry x="390" y="183.75" width="180" height="80" as="geometry"/>
                </mxCell>
                <mxCell id="40" value="&lt;font style=&quot;font-size: 18px&quot;&gt;&lt;font color=&quot;#ccffcc&quot;&gt;Runs the Build x times a day&lt;/font&gt;&lt;br&gt;&lt;/font&gt;" style="text;html=1;strokeColor=none;fillColor=none;align=center;verticalAlign=middle;whiteSpace=wrap;rounded=0;" vertex="1" parent="1">
                    <mxGeometry x="150" y="330" width="168.75" height="60" as="geometry"/>
                </mxCell>
                <mxCell id="41" value="&lt;font style=&quot;font-size: 18px&quot;&gt;&lt;font color=&quot;#ccffcc&quot;&gt;Pushes the Static Assets to S3&lt;/font&gt;&lt;br&gt;&lt;/font&gt;" style="text;html=1;strokeColor=none;fillColor=none;align=center;verticalAlign=middle;whiteSpace=wrap;rounded=0;" vertex="1" parent="1">
                    <mxGeometry x="561.44" y="325" width="140" height="70" as="geometry"/>
                </mxCell>
                <mxCell id="42" value="&lt;font style=&quot;font-size: 18px&quot;&gt;&lt;font color=&quot;#ccffcc&quot;&gt;Serves Static Site&lt;/font&gt;&lt;br&gt;&lt;/font&gt;" style="text;html=1;strokeColor=none;fillColor=none;align=center;verticalAlign=middle;whiteSpace=wrap;rounded=0;" vertex="1" parent="1">
                    <mxGeometry x="550" y="470" width="190" height="40" as="geometry"/>
                </mxCell>
                <mxCell id="43" value="&lt;font style=&quot;font-size: 18px&quot;&gt;&lt;font color=&quot;#ccffcc&quot;&gt;Authenticates through Confluence&lt;/font&gt;&lt;br&gt;&lt;/font&gt;" style="text;html=1;strokeColor=none;fillColor=none;align=center;verticalAlign=middle;whiteSpace=wrap;rounded=0;" vertex="1" parent="1">
                    <mxGeometry x="220.00000000000006" y="620" width="190" height="60" as="geometry"/>
                </mxCell>
                <mxCell id="44" value="&lt;font style=&quot;font-size: 18px&quot;&gt;&lt;font color=&quot;#ccffcc&quot;&gt;Saves Notes as an entry from authentiicated Confluence User &lt;br&gt;in the wiki&lt;/font&gt;&lt;br&gt;&lt;/font&gt;" style="text;html=1;strokeColor=none;fillColor=none;align=center;verticalAlign=middle;whiteSpace=wrap;rounded=0;" vertex="1" parent="1">
                    <mxGeometry x="530" y="620" width="190" height="60" as="geometry"/>
                </mxCell>
                <mxCell id="45" value="&lt;font style=&quot;font-size: 18px&quot;&gt;&lt;font color=&quot;#ccffcc&quot;&gt;Filters and Transforms Descriptions&lt;/font&gt;&lt;br&gt;&lt;/font&gt;" style="text;html=1;strokeColor=none;fillColor=none;align=center;verticalAlign=middle;whiteSpace=wrap;rounded=0;" vertex="1" parent="1">
                    <mxGeometry x="390" y="282.5" width="150" height="60" as="geometry"/>
                </mxCell>
            </root>
        </mxGraphModel>
    </diagram>
</mxfile>
